<?xml version="1.0" encoding="iso-8859-1"?>
<!-- Generator: Adobe Illustrator 19.0.0, SVG Export Plug-In . SVG Version: 6.00 Build 0)  -->
<svg version="1.1" id="Layer_1" xmlns="http://www.w3.org/2000/svg" xmlns:xlink="http://www.w3.org/1999/xlink" x="0px" y="0px"
	 viewBox="0 0 512 512" style="enable-background:new 0 0 512 512;" xml:space="preserve">
<path style="fill:#D3C58B;" d="M330.42,489.928l-135.969-49.489c-23.106-8.41-35.02-33.958-26.61-57.065L289.66,48.681
	c8.41-23.106,33.958-35.02,57.065-26.61l135.969,49.489c23.106,8.41,35.02,33.958,26.61,57.065L387.484,463.319
	C379.075,486.425,353.526,498.339,330.42,489.928z"/>
<path style="fill:#FF4800;" d="M263.012,121.896l26.647-73.214c8.41-23.106,33.958-35.02,57.065-26.61l135.969,49.489
	c23.106,8.41,35.02,33.958,26.61,57.065l-26.647,73.214L263.012,121.896z"/>
<path style="fill:#841C00;" d="M490.269,180.921l-7.613,20.919l-26.148-9.518c-2.888-1.051-4.378-4.244-3.326-7.132l3.807-10.459
	c1.051-2.888,4.245-4.378,7.133-3.326L490.269,180.921z M432.743,159.983l-162.118-59.006l-7.613,20.919l162.117,59.006
	c2.888,1.051,6.082-0.439,7.134-3.327l3.807-10.458C437.121,164.228,435.632,161.034,432.743,159.983z"/>
<path style="fill:#636363;" d="M356.658,512H22.261C9.966,512,0,502.034,0,489.739V22.261C0,9.966,9.966,0,22.261,0h334.397
	c24.588,0,44.522,19.933,44.522,44.522v422.956C401.18,492.067,381.247,512,356.658,512z"/>
<path style="fill:#444444;" d="M66.783,512H22.261C9.966,512,0,502.034,0,489.739V22.261C0,9.966,9.966,0,22.261,0h44.522V512z"/>
<path style="fill:#D8BF77;" d="M233.618,311.652h0.243c61.373,0,111.304-49.931,111.304-111.304S295.234,89.044,233.86,89.044
	h-0.243c-61.373,0-111.304,49.931-111.304,111.304S172.245,311.652,233.618,311.652z M145.294,211.478h43.882v55.652
	c0,3.846,0.491,7.58,1.412,11.142C166.264,264.787,148.901,240.246,145.294,211.478z M233.779,111.305
	c12.275,0,22.261,9.986,22.261,22.261v55.652h-44.602v-55.652C211.438,121.291,221.424,111.305,233.779,111.305z M256.04,211.478
	v55.652c0,12.275-9.986,22.261-22.341,22.261c-12.275,0-22.261-9.986-22.261-22.261v-55.652H256.04z M276.89,278.271
	c0.922-3.562,1.411-7.295,1.411-11.14v-55.652h43.882C318.577,240.246,301.214,264.785,276.89,278.271z M322.184,189.218h-43.882
	v-55.652c0-3.846-0.491-7.58-1.412-11.142C301.214,135.909,318.577,160.45,322.184,189.218z M190.589,122.425
	c-0.922,3.562-1.411,7.295-1.411,11.14v55.652h-43.882C148.901,160.45,166.264,135.911,190.589,122.425z M342.379,389.565
	c0,6.147-4.983,11.13-11.13,11.13H147.374c-6.147,0-11.13-4.983-11.13-11.13s4.983-11.13,11.13-11.13h183.875
	C337.396,378.435,342.379,383.418,342.379,389.565z"/>
<g>
</g>
<g>
</g>
<g>
</g>
<g>
</g>
<g>
</g>
<g>
</g>
<g>
</g>
<g>
</g>
<g>
</g>
<g>
</g>
<g>
</g>
<g>
</g>
<g>
</g>
<g>
</g>
<g>
</g>
</svg>
